<mxfile host="Electron" agent="Mozilla/5.0 (X11; Linux x86_64) AppleWebKit/537.36 (KHTML, like Gecko) draw.io/24.7.17 Chrome/128.0.6613.36 Electron/32.0.1 Safari/537.36" version="24.7.17">
  <diagram name="PÃ¡gina-1" id="d70zs6QanTtOCBr7Npn7">
    <mxGraphModel dx="2195" dy="838" grid="1" gridSize="10" guides="1" tooltips="1" connect="1" arrows="1" fold="1" page="1" pageScale="1" pageWidth="827" pageHeight="1169" math="0" shadow="0">
      <root>
        <mxCell id="0" />
        <mxCell id="1" parent="0" />
        <mxCell id="K__6R705v7ue-EoDipmq-1" value="User" style="text;html=1;align=center;verticalAlign=middle;whiteSpace=wrap;rounded=0;" parent="1" vertex="1">
          <mxGeometry x="67" y="320" width="60" height="30" as="geometry" />
        </mxCell>
        <mxCell id="K__6R705v7ue-EoDipmq-2" value="User Activitie" style="text;html=1;align=center;verticalAlign=middle;whiteSpace=wrap;rounded=0;" parent="1" vertex="1">
          <mxGeometry x="65" y="449" width="60" height="30" as="geometry" />
        </mxCell>
        <mxCell id="K__6R705v7ue-EoDipmq-3" value="User&lt;div&gt;Task&lt;/div&gt;&lt;div&gt;&lt;br&gt;&lt;/div&gt;" style="text;html=1;align=center;verticalAlign=middle;whiteSpace=wrap;rounded=0;" parent="1" vertex="1">
          <mxGeometry x="60" y="575" width="60" height="30" as="geometry" />
        </mxCell>
        <mxCell id="K__6R705v7ue-EoDipmq-4" value="RESPONSABLE IT" style="rounded=0;whiteSpace=wrap;html=1;" parent="1" vertex="1">
          <mxGeometry x="470" y="300" width="250" height="60" as="geometry" />
        </mxCell>
        <mxCell id="K__6R705v7ue-EoDipmq-5" value="RESPONSABLE LOCAL" style="rounded=0;whiteSpace=wrap;html=1;" parent="1" vertex="1">
          <mxGeometry x="150" y="300" width="250" height="60" as="geometry" />
        </mxCell>
        <mxCell id="K__6R705v7ue-EoDipmq-7" value="MINISTERIO&amp;nbsp;&lt;div&gt;DE SALUD&lt;/div&gt;" style="rounded=0;whiteSpace=wrap;html=1;" parent="1" vertex="1">
          <mxGeometry x="770" y="300" width="120" height="60" as="geometry" />
        </mxCell>
        <mxCell id="K__6R705v7ue-EoDipmq-8" value="ADMINISTRAR HOSPITAL" style="rounded=0;whiteSpace=wrap;html=1;" parent="1" vertex="1">
          <mxGeometry x="150" y="435" width="250" height="55" as="geometry" />
        </mxCell>
        <mxCell id="K__6R705v7ue-EoDipmq-9" value="GESTIONAR SISTEMA" style="rounded=0;whiteSpace=wrap;html=1;" parent="1" vertex="1">
          <mxGeometry x="470" y="432.5" width="250" height="60" as="geometry" />
        </mxCell>
        <mxCell id="K__6R705v7ue-EoDipmq-10" value="CARGAR&lt;div&gt;CLIENTE&lt;/div&gt;" style="rounded=0;whiteSpace=wrap;html=1;" parent="1" vertex="1">
          <mxGeometry x="150" y="555" width="120" height="60" as="geometry" />
        </mxCell>
        <mxCell id="K__6R705v7ue-EoDipmq-11" value="CARGAR HOSPITAL" style="rounded=0;whiteSpace=wrap;html=1;" parent="1" vertex="1">
          <mxGeometry x="470" y="555" width="120" height="60" as="geometry" />
        </mxCell>
        <mxCell id="K__6R705v7ue-EoDipmq-12" value="CREAR USUARIO" style="rounded=0;whiteSpace=wrap;html=1;" parent="1" vertex="1">
          <mxGeometry x="600" y="555" width="120" height="60" as="geometry" />
        </mxCell>
        <mxCell id="K__6R705v7ue-EoDipmq-14" value="CARGAR&lt;div&gt;CAPACIDAD&lt;/div&gt;" style="rounded=0;whiteSpace=wrap;html=1;" parent="1" vertex="1">
          <mxGeometry x="280" y="555" width="120" height="60" as="geometry" />
        </mxCell>
        <mxCell id="K__6R705v7ue-EoDipmq-15" value="MOSTRAR MAPA" style="rounded=0;whiteSpace=wrap;html=1;" parent="1" vertex="1">
          <mxGeometry x="770" y="435" width="120" height="60" as="geometry" />
        </mxCell>
        <mxCell id="K__6R705v7ue-EoDipmq-16" value="VISUALIZAR MAPA" style="rounded=0;whiteSpace=wrap;html=1;" parent="1" vertex="1">
          <mxGeometry x="770" y="560" width="120" height="60" as="geometry" />
        </mxCell>
        <mxCell id="K__6R705v7ue-EoDipmq-17" value="GENERAR REPORTE AUTOMATICO" style="rounded=0;whiteSpace=wrap;html=1;" parent="1" vertex="1">
          <mxGeometry x="921" y="437" width="120" height="60" as="geometry" />
        </mxCell>
        <mxCell id="K__6R705v7ue-EoDipmq-18" value="GENERAR&amp;nbsp;&lt;div&gt;REPORTE&lt;/div&gt;" style="rounded=0;whiteSpace=wrap;html=1;" parent="1" vertex="1">
          <mxGeometry x="925" y="561" width="120" height="60" as="geometry" />
        </mxCell>
        <mxCell id="K__6R705v7ue-EoDipmq-19" value="User&lt;div&gt;Stories&lt;/div&gt;" style="text;html=1;align=center;verticalAlign=middle;whiteSpace=wrap;rounded=0;" parent="1" vertex="1">
          <mxGeometry x="60" y="660" width="60" height="30" as="geometry" />
        </mxCell>
        <mxCell id="K__6R705v7ue-EoDipmq-20" value="&lt;h1 style=&quot;text-align: center; margin-top: 0px;&quot;&gt;&lt;span style=&quot;background-color: initial;&quot;&gt;US1&lt;/span&gt;&lt;/h1&gt;&lt;h1 style=&quot;text-align: center; margin-top: 0px;&quot;&gt;&lt;span style=&quot;font-size: 12px; font-weight: 400;&quot;&gt;Como responsable local quiero cargar un paciente para que este sea atentido&lt;/span&gt;&lt;/h1&gt;&lt;div style=&quot;text-align: center;&quot;&gt;&lt;span style=&quot;font-size: 12px;&quot;&gt;&lt;b&gt;Criterios de aceptacion:&lt;/b&gt;&lt;/span&gt;&lt;/div&gt;&lt;div style=&quot;text-align: center;&quot;&gt;&lt;span style=&quot;font-size: 12px; font-weight: 400;&quot;&gt;&lt;br&gt;&lt;/span&gt;&lt;/div&gt;&lt;div style=&quot;&quot;&gt;&lt;ul&gt;&lt;li&gt;&lt;span style=&quot;font-size: 12px; font-weight: 400;&quot;&gt;Verificar que se alla cargado la capacidad del hospital previamente(enlaza con US3)&amp;nbsp;&lt;/span&gt;&lt;/li&gt;&lt;li&gt;&lt;span style=&quot;font-size: 12px; font-weight: 400;&quot;&gt;Solicitar el numero de DNI&lt;/span&gt;&lt;/li&gt;&lt;li&gt;Solicitar historial clinico al SIHC (enlaza con US2)&lt;/li&gt;&lt;li&gt;solicitar dia y hora de ingreso al hospital.&lt;/li&gt;&lt;li&gt;solicitar la enfermedad que esta cursando el paciente&lt;/li&gt;&lt;li&gt;solicitar el tipo de cama que ocupa(sala general,terapia intermedia o terapia intensiva)&lt;/li&gt;&lt;/ul&gt;&lt;/div&gt;&lt;div style=&quot;text-align: center;&quot;&gt;&lt;span style=&quot;font-size: 12px; font-weight: 400;&quot;&gt;&lt;br&gt;&lt;/span&gt;&lt;/div&gt;" style="text;html=1;whiteSpace=wrap;overflow=hidden;rounded=0;" parent="1" vertex="1">
          <mxGeometry x="-50" y="840" width="380" height="290" as="geometry" />
        </mxCell>
        <mxCell id="K__6R705v7ue-EoDipmq-21" value="&lt;b&gt;US1&lt;/b&gt;" style="text;html=1;align=center;verticalAlign=middle;whiteSpace=wrap;rounded=0;" parent="1" vertex="1">
          <mxGeometry x="170" y="660" width="60" height="30" as="geometry" />
        </mxCell>
        <mxCell id="OKpITLbmhUjsvShot4W_-1" value="&lt;h1 style=&quot;text-align: center; margin-top: 0px;&quot;&gt;US2&lt;/h1&gt;&lt;div style=&quot;text-align: center;&quot;&gt;Como responsable local quiero obtener el historial clinico del paciente para poder cargarlo al sistema&lt;/div&gt;&lt;div style=&quot;text-align: center;&quot;&gt;&lt;br&gt;&lt;/div&gt;&lt;div style=&quot;text-align: center;&quot;&gt;&lt;b&gt;Cristerios de aceptacion&lt;/b&gt;&lt;/div&gt;&lt;div style=&quot;text-align: center;&quot;&gt;&lt;br&gt;&lt;/div&gt;&lt;div style=&quot;&quot;&gt;&lt;ul&gt;&lt;li&gt;Solicitar el historial clinico al SIHC&lt;/li&gt;&lt;li&gt;Verificar que exista nombre,apellido, direccion y fecha de nacimiento&lt;/li&gt;&lt;li&gt;si no existe crear un historial clinico solicitando nombre,apellido direccion y fecha de nacimiento.&lt;/li&gt;&lt;li&gt;enviar historial cliinico creado al SIHC&lt;/li&gt;&lt;/ul&gt;&lt;/div&gt;&lt;div&gt;&lt;br&gt;&lt;/div&gt;" style="text;html=1;whiteSpace=wrap;overflow=hidden;rounded=0;" vertex="1" parent="1">
          <mxGeometry x="360" y="840" width="420" height="220" as="geometry" />
        </mxCell>
        <mxCell id="OKpITLbmhUjsvShot4W_-2" value="&lt;b&gt;US2&lt;/b&gt;" style="text;html=1;align=center;verticalAlign=middle;whiteSpace=wrap;rounded=0;" vertex="1" parent="1">
          <mxGeometry x="170" y="720" width="60" height="30" as="geometry" />
        </mxCell>
        <mxCell id="OKpITLbmhUjsvShot4W_-3" value="&lt;b&gt;US3&lt;/b&gt;" style="text;html=1;align=center;verticalAlign=middle;whiteSpace=wrap;rounded=0;" vertex="1" parent="1">
          <mxGeometry x="300" y="660" width="60" height="30" as="geometry" />
        </mxCell>
        <mxCell id="OKpITLbmhUjsvShot4W_-4" value="&lt;h1 style=&quot;text-align: center; margin-top: 0px;&quot;&gt;US3&lt;/h1&gt;&lt;div&gt;Como responsable local quiero cargar la capacidad de camas del hospital para ampliar/cargar la capacidad de atencion&lt;/div&gt;&lt;div&gt;&lt;b style=&quot;text-align: center; background-color: initial;&quot;&gt;&lt;br&gt;&lt;/b&gt;&lt;/div&gt;&lt;div style=&quot;text-align: center;&quot;&gt;&lt;b style=&quot;background-color: initial;&quot;&gt;Cristerios de aceptacion&lt;/b&gt;&lt;/div&gt;&lt;div style=&quot;text-align: center;&quot;&gt;&lt;br&gt;&lt;/div&gt;&lt;div style=&quot;&quot;&gt;&lt;ul&gt;&lt;li&gt;Solicitar la cantidad de camas totales&lt;/li&gt;&lt;li&gt;Verificar que por cada cama se indique su tipo (sala general, terapia intermedia, terapia intensiva).&lt;/li&gt;&lt;/ul&gt;&lt;/div&gt;" style="text;html=1;whiteSpace=wrap;overflow=hidden;rounded=0;" vertex="1" parent="1">
          <mxGeometry x="800" y="839" width="420" height="220" as="geometry" />
        </mxCell>
        <mxCell id="OKpITLbmhUjsvShot4W_-5" value="&lt;b&gt;US4&lt;/b&gt;" style="text;html=1;align=center;verticalAlign=middle;whiteSpace=wrap;rounded=0;" vertex="1" parent="1">
          <mxGeometry x="500" y="660" width="60" height="30" as="geometry" />
        </mxCell>
        <mxCell id="OKpITLbmhUjsvShot4W_-6" value="&lt;b&gt;US5&lt;/b&gt;" style="text;html=1;align=center;verticalAlign=middle;whiteSpace=wrap;rounded=0;" vertex="1" parent="1">
          <mxGeometry x="630" y="660" width="60" height="30" as="geometry" />
        </mxCell>
        <mxCell id="OKpITLbmhUjsvShot4W_-7" value="&lt;h1 style=&quot;text-align: center; margin-top: 0px;&quot;&gt;US4&lt;/h1&gt;&lt;div&gt;Como responsable de IT quiero agregar hospitales al sistema para ampliar la atencion medica&lt;/div&gt;&lt;div&gt;&lt;br&gt;&lt;/div&gt;&lt;div style=&quot;text-align: center;&quot;&gt;&lt;b&gt;Criterios de aceptacion&lt;/b&gt;&lt;/div&gt;&lt;div style=&quot;text-align: center;&quot;&gt;&lt;br&gt;&lt;/div&gt;&lt;div&gt;Solicitar al responsable IT&amp;nbsp; por cada hospital:&lt;/div&gt;&lt;div&gt;&lt;ul&gt;&lt;li&gt;nombre del hospital&amp;nbsp;&lt;/li&gt;&lt;li&gt;zona sanitaria&lt;/li&gt;&lt;li&gt;ciudad&amp;nbsp;&lt;/li&gt;&lt;li&gt;direccion&lt;/li&gt;&lt;/ul&gt;&lt;/div&gt;" style="text;html=1;whiteSpace=wrap;overflow=hidden;rounded=0;" vertex="1" parent="1">
          <mxGeometry x="-20" y="1240" width="380" height="230" as="geometry" />
        </mxCell>
        <mxCell id="OKpITLbmhUjsvShot4W_-8" value="&lt;h1 style=&quot;text-align: center; margin-top: 0px;&quot;&gt;US5&lt;/h1&gt;&lt;div&gt;Como responsable de IT quiero crear un usuario para que sea el responsable de un hospital&lt;/div&gt;&lt;div&gt;&lt;br&gt;&lt;/div&gt;&lt;div style=&quot;text-align: center;&quot;&gt;&lt;b&gt;Criterios de aceptacion&lt;/b&gt;&lt;/div&gt;&lt;div style=&quot;text-align: center;&quot;&gt;&lt;br&gt;&lt;/div&gt;&lt;div&gt;&lt;ul&gt;&lt;li&gt;Solicitar nombre del responsable&lt;/li&gt;&lt;li&gt;Solicitar apellido del responsable&lt;/li&gt;&lt;li&gt;Solicitar contraseÃ±a del responsable&lt;/li&gt;&lt;li&gt;Solicitar casilla de e-email del responsable&lt;/li&gt;&lt;li&gt;Solicitar hospital del cual sera responsable&lt;/li&gt;&lt;li&gt;Verificar que se envie un email al responsable con las credenciales de usuario&lt;/li&gt;&lt;/ul&gt;&lt;/div&gt;" style="text;html=1;whiteSpace=wrap;overflow=hidden;rounded=0;" vertex="1" parent="1">
          <mxGeometry x="340" y="1205" width="450" height="300" as="geometry" />
        </mxCell>
        <mxCell id="OKpITLbmhUjsvShot4W_-9" value="&lt;b&gt;US6&lt;/b&gt;" style="text;html=1;align=center;verticalAlign=middle;whiteSpace=wrap;rounded=0;" vertex="1" parent="1">
          <mxGeometry x="790" y="660" width="60" height="30" as="geometry" />
        </mxCell>
        <mxCell id="OKpITLbmhUjsvShot4W_-10" value="&lt;h1 style=&quot;text-align: center; margin-top: 0px;&quot;&gt;US6&lt;/h1&gt;&lt;h1 style=&quot;text-align: center; margin-top: 0px;&quot;&gt;&lt;span style=&quot;background-color: initial; font-size: 12px; font-weight: normal; text-align: left;&quot;&gt;Como ministerio de salud quiero acceder al mapa de calor de la provincia para ver la disponibilidad de camas&lt;/span&gt;&lt;/h1&gt;&lt;div&gt;&lt;br&gt;&lt;/div&gt;&lt;div style=&quot;text-align: center;&quot;&gt;&lt;b&gt;Criterios de aceptacion&lt;/b&gt;&lt;/div&gt;&lt;div style=&quot;text-align: center;&quot;&gt;&lt;br&gt;&lt;/div&gt;&lt;div&gt;Generar un mapa de calor utilizando tonalidades de rojo a verde&lt;/div&gt;&lt;div&gt;Verificar que el mapa indique la disponibilidad o no de camas en cada uno de los hospitales.&lt;/div&gt;&lt;div&gt;Verificar que se permita filtrar el mapa por tipo de cama y/o enfermedad&lt;/div&gt;&lt;div&gt;Verificar que el mapa muestre en el link del reporte (enlaza con US7)&lt;/div&gt;" style="text;html=1;whiteSpace=wrap;overflow=hidden;rounded=0;" vertex="1" parent="1">
          <mxGeometry x="800" y="1210" width="380" height="290" as="geometry" />
        </mxCell>
        <mxCell id="OKpITLbmhUjsvShot4W_-11" value="&lt;h1 style=&quot;text-align: center; margin-top: 0px;&quot;&gt;US7&lt;/h1&gt;&lt;div&gt;Como sistema quiero poder generar un reporte para el ministerio de salud&lt;/div&gt;&lt;div&gt;&lt;br&gt;&lt;/div&gt;&lt;div style=&quot;text-align: center;&quot;&gt;Criterio de aceptacion&lt;/div&gt;&lt;div&gt;&lt;ul&gt;&lt;li&gt;Verificar que se envie el reporte todos los nunes a las 8 de la maÃ±ana&lt;/li&gt;&lt;li&gt;Verificar que el reporte contenga la cantidad de camas ocupadas y disponibles en cada hospital, discretizado por el tipo de cama.&lt;/li&gt;&lt;li&gt;Verificar que el reporte se guarde en el Google Drive del ministerio&lt;/li&gt;&lt;li&gt;Verificar que se genera un link para acceder al reporte&lt;/li&gt;&lt;/ul&gt;&lt;/div&gt;" style="text;html=1;whiteSpace=wrap;overflow=hidden;rounded=0;" vertex="1" parent="1">
          <mxGeometry x="1210" y="1230" width="430" height="250" as="geometry" />
        </mxCell>
        <mxCell id="OKpITLbmhUjsvShot4W_-12" value="&lt;b&gt;US7&lt;/b&gt;" style="text;html=1;align=center;verticalAlign=middle;whiteSpace=wrap;rounded=0;" vertex="1" parent="1">
          <mxGeometry x="955" y="660" width="60" height="30" as="geometry" />
        </mxCell>
      </root>
    </mxGraphModel>
  </diagram>
</mxfile>
